<?xml version="1.0" standalone="no"?>
<!DOCTYPE svg PUBLIC "-//W3C//DTD SVG 20010904//EN"
 "http://www.w3.org/TR/2001/REC-SVG-20010904/DTD/svg10.dtd">
<svg version="1.0" xmlns="http://www.w3.org/2000/svg"
 width="320.000000pt" height="320.000000pt" viewBox="0 0 320.000000 320.000000"
 preserveAspectRatio="xMidYMid meet">
<metadata>
Created by potrace 1.11, written by Peter Selinger 2001-2013
</metadata>
<g transform="translate(0.000000,320.000000) scale(0.100000,-0.100000)"
fill="#000000" stroke="none">
<path d="M143 2332 l-113 -3 0 -79 c0 -57 4 -80 13 -81 6 0 41 0 77 1 l65 1
-2 -223 c-2 -123 -4 -365 -5 -538 -3 -311 -3 -315 -26 -347 -13 -18 -34 -35
-48 -38 -81 -17 -74 -9 -74 -85 l0 -70 553 0 553 0 3 158 c2 86 4 190 5 230 3
79 7 75 -69 74 -75 -1 -73 1 -73 -41 -2 -107 -73 -213 -162 -240 -29 -9 -100
-15 -201 -16 l-155 -2 0 259 1 258 30 1 c95 3 131 -3 162 -27 46 -35 57 -58
62 -136 1 -15 11 -18 71 -18 l70 0 1 43 c3 231 -1 461 -9 466 -8 5 -126 6
-152 2 -3 -1 -3 -41 -2 -90 l4 -89 -116 -1 -116 -1 -1 27 c-1 16 -1 103 -1
195 0 243 16 266 183 267 175 2 266 -73 272 -223 l2 -45 55 1 c99 1 91 -16 84
196 -4 103 -7 193 -7 200 0 6 -12 12 -26 12 -352 3 -822 4 -908 2z"/>
<path d="M1357 2332 c-9 -2 -17 -11 -18 -20 -1 -18 -1 -133 0 -142 1 -3 35 -4
76 -2 l76 4 -6 -248 c-3 -137 -7 -370 -10 -519 -3 -148 -8 -285 -11 -303 -10
-52 -66 -90 -121 -83 -14 2 -15 0 -17 -77 -1 -29 1 -57 4 -62 4 -7 92 -9 241
-8 l234 3 0 70 c1 39 -1 75 -3 82 -2 8 -27 10 -75 8 l-72 -4 0 459 c0 252 3
453 6 447 4 -7 21 -62 38 -122 38 -135 69 -218 242 -637 l134 -328 100 0 101
0 187 503 c103 276 199 529 212 562 l24 60 1 -45 c1 -25 3 -85 6 -135 8 -170
12 -271 19 -476 6 -182 5 -210 -10 -242 -18 -39 -55 -59 -127 -66 -4 -1 -7
-32 -7 -71 l0 -70 294 0 294 0 -2 83 -2 82 -75 -2 -75 -2 0 152 c-1 136 -10
427 -20 592 -10 170 -6 324 8 352 17 32 53 55 94 59 15 1 30 2 33 3 3 1 6 33
6 71 l0 70 -40 1 c-151 3 -442 -3 -447 -9 -7 -8 -305 -801 -372 -990 l-44
-124 -42 119 c-41 112 -60 163 -115 306 -105 271 -208 535 -216 552 -4 11 -19
48 -32 83 l-23 62 -50 0 c-27 0 -125 2 -216 3 -91 1 -173 1 -182 -1z"/>
</g>
</svg>
