<?xml version="1.0" standalone="no"?>
<!DOCTYPE svg PUBLIC "-//W3C//DTD SVG 20010904//EN"
 "http://www.w3.org/TR/2001/REC-SVG-20010904/DTD/svg10.dtd">
<svg version="1.0" xmlns="http://www.w3.org/2000/svg"
 width="475.000000pt" height="475.000000pt" viewBox="0 0 475.000000 475.000000"
 preserveAspectRatio="xMidYMid meet">
<metadata>
Created by potrace 1.11, written by Peter Selinger 2001-2013
</metadata>
<g transform="translate(0.000000,475.000000) scale(0.100000,-0.100000)"
fill="#000000" stroke="none">
<path d="M27 3472 c-2 -4 -3 -59 -3 -122 l1 -115 117 2 116 2 -5 -47 c-2 -26
-6 -380 -7 -787 -2 -407 -6 -753 -11 -770 -22 -82 -58 -120 -123 -130 -95 -13
-88 -3 -88 -121 l0 -104 828 0 c655 0 828 3 829 13 0 6 2 75 4 152 14 506 14
525 2 526 -7 1 -54 2 -104 3 -87 2 -93 0 -93 -19 -3 -160 -64 -296 -163 -363
-83 -57 -130 -66 -377 -68 -235 -2 -265 0 -253 19 3 6 8 178 9 381 1 204 2
375 3 379 2 15 214 1 256 -17 79 -33 119 -109 124 -231 1 -19 7 -21 106 -21
l105 1 0 382 0 383 -124 0 -123 0 4 -92 c2 -51 5 -112 7 -136 l3 -42 -181 2
-181 3 1 280 c1 299 7 343 50 394 33 40 72 51 195 56 124 4 234 -14 294 -50
71 -41 126 -126 144 -220 5 -25 9 -48 10 -50 0 -3 1 -22 1 -43 l0 -39 108 2
c62 0 106 5 105 10 0 6 -4 116 -8 245 -7 231 -11 339 -14 351 -2 8 -1560 9
-1564 1z"/>
<path d="M1985 3471 c-2 -4 -3 -59 -3 -123 l1 -117 117 4 117 4 -3 -47 c-5
-87 -13 -445 -19 -897 -8 -596 -11 -647 -34 -707 -21 -53 -81 -88 -153 -88
-15 0 -30 -6 -35 -12 -4 -7 -8 -57 -8 -111 l-1 -97 360 2 360 3 1 105 c0 58
-1 113 -3 122 -4 15 -17 16 -118 13 l-115 -4 7 92 c8 117 12 1162 4 1250 -3
37 -3 63 1 59 3 -4 16 -47 29 -97 53 -212 235 -699 405 -1090 18 -40 115 -280
157 -385 l34 -85 155 -3 155 -2 43 117 c23 65 47 127 52 138 4 11 58 155 120
320 61 165 124 334 139 375 53 136 96 252 185 493 49 130 89 236 91 234 1 -1
5 -61 9 -132 3 -72 8 -159 10 -195 7 -98 20 -427 30 -745 8 -219 2 -263 -41
-314 -26 -31 -77 -51 -140 -54 -19 -1 -34 -8 -35 -14 -1 -17 -1 -134 0 -173
l1 -30 434 0 c338 0 435 3 438 13 2 6 3 62 3 122 l-1 110 -115 -2 -114 -2 0
202 c0 199 -4 308 -31 962 -13 305 -11 444 10 485 24 50 61 73 136 85 l65 11
1 102 c1 97 0 103 -20 107 -11 2 -176 3 -365 2 l-344 -2 -109 -290 c-59 -159
-111 -297 -115 -305 -3 -8 -7 -19 -9 -25 -1 -5 -59 -161 -129 -345 -69 -184
-153 -411 -187 -505 -33 -93 -65 -183 -70 -198 -10 -28 -11 -28 -30 30 -55
164 -150 417 -377 998 l-249 640 -347 1 c-190 0 -347 -2 -350 -5z"/>
</g>
</svg>
